<mxfile host="app.diagrams.net" modified="2024-06-23T15:10:26.105Z" agent="Mozilla/5.0 (Windows NT 10.0; Win64; x64) AppleWebKit/537.36 (KHTML, like Gecko) Chrome/126.0.0.0 Safari/537.36" etag="INt7p2u_XGO6LzBiqI79" version="24.6.2" type="github">
  <diagram name="Page-1" id="CR9YtdWiljRfBt_hmjWE">
    <mxGraphModel dx="880" dy="460" grid="1" gridSize="10" guides="1" tooltips="1" connect="1" arrows="1" fold="1" page="1" pageScale="1" pageWidth="850" pageHeight="1100" math="0" shadow="0">
      <root>
        <mxCell id="0" />
        <mxCell id="1" parent="0" />
        <mxCell id="FiKBFIKchyI4jBAanVFJ-1" value="currency-conversion-service" style="rounded=0;whiteSpace=wrap;html=1;" vertex="1" parent="1">
          <mxGeometry x="50" y="60" width="250" height="50" as="geometry" />
        </mxCell>
        <mxCell id="FiKBFIKchyI4jBAanVFJ-2" value="currency-exchange-service" style="rounded=0;whiteSpace=wrap;html=1;" vertex="1" parent="1">
          <mxGeometry x="340" y="60" width="230" height="50" as="geometry" />
        </mxCell>
        <mxCell id="FiKBFIKchyI4jBAanVFJ-3" value="Microservice x" style="rounded=0;whiteSpace=wrap;html=1;" vertex="1" parent="1">
          <mxGeometry x="620" y="60" width="220" height="50" as="geometry" />
        </mxCell>
        <mxCell id="FiKBFIKchyI4jBAanVFJ-4" value="Naming Server or Service Registry" style="rounded=0;whiteSpace=wrap;html=1;" vertex="1" parent="1">
          <mxGeometry x="300" y="250" width="330" height="40" as="geometry" />
        </mxCell>
        <mxCell id="FiKBFIKchyI4jBAanVFJ-5" value="" style="endArrow=classic;html=1;rounded=0;exitX=0.5;exitY=1;exitDx=0;exitDy=0;entryX=0.357;entryY=-0.075;entryDx=0;entryDy=0;entryPerimeter=0;" edge="1" parent="1" source="FiKBFIKchyI4jBAanVFJ-1" target="FiKBFIKchyI4jBAanVFJ-4">
          <mxGeometry width="50" height="50" relative="1" as="geometry">
            <mxPoint x="400" y="270" as="sourcePoint" />
            <mxPoint x="450" y="220" as="targetPoint" />
          </mxGeometry>
        </mxCell>
        <mxCell id="FiKBFIKchyI4jBAanVFJ-6" value="" style="endArrow=classic;html=1;rounded=0;entryX=0.425;entryY=-0.075;entryDx=0;entryDy=0;entryPerimeter=0;" edge="1" parent="1" target="FiKBFIKchyI4jBAanVFJ-4">
          <mxGeometry width="50" height="50" relative="1" as="geometry">
            <mxPoint x="450" y="110" as="sourcePoint" />
            <mxPoint x="450" y="220" as="targetPoint" />
          </mxGeometry>
        </mxCell>
        <mxCell id="FiKBFIKchyI4jBAanVFJ-7" value="" style="endArrow=classic;html=1;rounded=0;exitX=0.377;exitY=1.14;exitDx=0;exitDy=0;exitPerimeter=0;entryX=0.5;entryY=0;entryDx=0;entryDy=0;" edge="1" parent="1" source="FiKBFIKchyI4jBAanVFJ-3" target="FiKBFIKchyI4jBAanVFJ-4">
          <mxGeometry width="50" height="50" relative="1" as="geometry">
            <mxPoint x="400" y="270" as="sourcePoint" />
            <mxPoint x="450" y="220" as="targetPoint" />
          </mxGeometry>
        </mxCell>
      </root>
    </mxGraphModel>
  </diagram>
</mxfile>
